<svg id="Layer_5" data-name="Layer 5" xmlns="http://www.w3.org/2000/svg" viewBox="0 0 1542.71 1920"><path d="M542.26,1156.77l-25.8,7.53c-5.14,6-.21,9.81.57,14.09,1.1,6-5.34,6.58-7.61,10.23,3.37,1.88,6.52,4.05,10,5.47,6.11,2.54,12.41,4.62,18.59,6.87,7.54-1.94,7.7-10.3,11.65-14.15,23.87-6.15,43,4.93,63.69,11.62,19.87,6.43,35.25,22.18,57.44,23.34-.64,5.19-1.08,8.81-1.56,12.7,3.87,5.46,12.1.66,17.93,6.56l-18.28,3.64c2,1.3,3.31,2.8,4.6,2.82,19.71.39,39.89-2.52,57.58,9.47l-4.52,7.35c13.84,1.92,25.94-10.59,39.58-2.08l-5.72,6.23c10.28,5.42,17.4-3.18,25.49-5.83,23.95-7.84,27.95-7.9,48,3.29-.4,4.2-.83,8.61-1.42,14.72,18.11-10.61,19.62,14.69,35.41,14.39,14.23-.26,19.6,15.23,25.57,27.18s2.24,28,16.25,39.46c.89-11.5,1.6-20.74,2.3-29.79,9-1.12,8.65,6.64,12.38,9.93,1.52.94,3.08.32,3.61-2.1,7.29-33.21-1.63-62.9-20.06-90.38-3.69-5.48-8.14-10.46-12.4-15.55-9.3-11.13-12.21-10.39-21.07,6.12-6.93-2.81-12-8-16.12-13.88-15.88-22.7-36.08-41.37-56-60.3-16.71-15.89-37.2-25.47-60.26-34.16,6.93-4.13,12.81-3,18.38-.69,50.87,20.88,101.62,42,144.75,77.39,5.13,4.2,10.37,8.28,15.28,12.73,21,19,22.71,28.29,10.36,52.85,3.63,3.5,6.75,1.86,9.61-1.07,19.48-19.92,33.59-42.23,32.65-71.56-.44-13.41.31-26.54,12.18-36.09,5.85-4.7,5-12,5.06-18.54a81.56,81.56,0,0,1,6-31.5c-13.24-10.57-26.34-21.07-39.48-31.53-3.7-2.94-8.34-5.11-11.09-8.74-14.89-19.6-34.43-24.23-58.6-27.26-31.35-3.94-62.33-4.28-93.3-2.68-18.26.94-36.82.05-55.68,6.3-4-17.9,3.87-26,16.69-31.77,22.28-10,45.32-17.59,68.36-25.53,31.06-10.69,60.39-4.88,90.73-4.62-12.67,12.77-32.27,5.77-45.7,19.12,4.78,0,8.88,1.1,12-.17,23.9-9.75,45.22.74,68.16,5.42,20.22,4.14,38.39,19.16,61.38,11.81a152.19,152.19,0,0,1,20.33,52.64c3.26,17.71-9.18,34.81-2.85,56.61,13.11-17.75,25.26-33.42,36.55-49.68,15.12-21.79,29.55-44,44.31-66.09,12.86-19.2,20.36-40.45,24.63-63,7.9-41.74,15-83.66,24.47-125,3.48-15.21,11-30.17,19.67-43.33,8.25-12.59,11.08-24.32,3.49-36.81-9.36-15.4-8.21-30.44-2-46.1,5.23,1.85,12.53,2.14,15.28,5.83,7.34,9.87,11.6,3.49,17.24-.83-14.94-16.23-33.85-29.12-46.55-30.38-8.11-.81-17.21-2.42-23.93,8.94,10.63,1,18.44,8.33,29.07,7.21l-3.65,15.27c-13.48-2.83-26.75-16.7-41.71-2.9,3.53,7.57,9.89,3.72,14.47,4.22,21.81,2.4,28.35,8.84,29.17,30,.18,4.74,0,9.49.13,14.24.33,15.2-3.78,27.91-18.69,35.1-4.85,2.34-6.83,9-13.59,9.44,1.16-9.32,2.11-18.53,3.49-27.67,1.21-8.06,2.89-16,2.27-24.77-8.22,16.05-25.22,27.54-22.84,48.42-6.7,1.85-9.82-4.55-14.9-6.65-1.35,1-3.23,1.72-3.75,3-4.83,11.5-7.66,23.5-6.8,36,2,29.15-2.35,58.32,5,87.63,5.81,23.08-1.24,45.74-21.23,61.16-14.32,11-19,24.33-17.73,41.89,1.45,20.59-9.39,39.82-8.08,61-.42-23.9-7.17-46.2-12.17-69.73-13.57-4.75-27.27-.07-43,.68,12.22-22.49,25.37-41.33,49.77-49.73-5.52-6.58-10.45-3.28-15.2-1.12-6.68,3-12.54,3.77-17.16-3.63-5.4-8.64-11.88.82-19-.88L982.07,939c3.74-6.4,8.26.75,12.58-2a3.82,3.82,0,0,0-2.38-5.9c-8.36-2.42-17-1.64-25.38-.28-32.2,5.22-43.73-1.58-54.45-32.59,3.42-6.81,9.38-8.57,16.47-8.93,12.82-.63,57,10.1,77.22,19.41,2.41,7.28,4.84,15.38,7.76,23.28,5.05,13.63,9.9,18,25,15.6,9.73-1.53,13.74,2.94,18.88,9.14,11.76-2.9,23.44-6.21,33.56-13.22,4.14-7.49,1.89-14.76.92-22.27-3.71-28.74-10.92-57-9-86.5,2.56-40.11.51-80.66,14.07-119.47,3-8.48.75-16.8-2.43-24.78,9.76-21,21.94-39.53,43.28-50.22,6.58-1.28,6,6.65,11.76,8.59,17.69-5.81,36.36-12.21,56.9-10.13,10.37,1,20.09-4.89,29.32-9.54,4.85-2.44,8.12-6.38,8.81-13.26,1.5-15.11,3.38-30.26.94-45.2-6.46-39.67-2.09-79.55-3.4-119.3-.12-3.69.34-7.85,2-11.08,12.68-25.29,6.73-51.66,4.81-77.75a63.35,63.35,0,0,0-9.65-29.4c-16.09-25.71-31.47-51.85-44.6-79.24a64.8,64.8,0,0,0-21.65-25.75,455.59,455.59,0,0,1-72.62-63.44c-13.41-14.52-29.46-26.66-44.77-39.34-8.1-6.7-16.53-9.06-28.5-7.08-18.3,3-37.46.8-56.41-.78,24.06-3.28,50.33,2.71,68.11-18.75,28.3,6.61,37.17,4.92,64.76-11.77.32-1.84,1.1-3.75.84-5.5-.4-2.77-1.51-5.43-2.41-8.45,8.16-8.21,13-19.58,29.47-18.91,8.32.34,17.11-10.73,26.63-17.29,6.45,3.45,15.49,2.11,20.69,10.89,5.43,9.16,13.86-3.16,21.48,2.4,4,15.16-12,23.8-15.48,40.11,16.5-5.57,16.73-21.3,25.75-30.56L1215.9,66c19-24,45-35,77.67-41.53-8,18.74-7,35.54-6.76,52.27.15,9.85-.94,20.55-9.68,25.3-11.23,6.1-12,15.21-14,25.71-4,20.73-6.16,41-.17,61.76,2,7,.31,15,.31,22.1-3.07,6.11-10,5.47-14.75,9,2.88,9,10.35,12.9,16.23,18.16,2-1.42,4.38-2.21,4.61-3.41,2.42-12.8,5.35-25.51,4.79-38.74-1-24.68,9-48.3,7.2-73.19a10.94,10.94,0,0,1,9.42-11.9c10,5,2.37,11.14,1.44,16.85s-1.64,11.3,3.21,17.35c11-1.19,13.11-15.23,24.85-18.33,1.54,16.25-13.87,32.92,1.92,48.11-15,13.77-16.07,28.5-4,48.51,4-16.9,6.08-30.5,10.69-43.16,4.39-12.08,6.37-25.82,18.63-37a61.86,61.86,0,0,1,.64,39.8c-4.8,15.67-3.79,29.64,2.08,42.86-3.25,10.65-9.14,18.13-15.71,27.56,21.8,18.79,17.8,42.56,9.69,69.9,19-6.2,33.56-15.86,51.82-27-9.3,24.89-25.88,41.36-38.78,59.6,4.1,4.46,8,3.23,11.31,1.64,24.12-11.61,48-24.77,61.8-48.3,10.16-17.3,26.17-21.54,46.42-32.33-16.9,25.31-31.54,44.82-43.5,65.86-11,19.38-30.75,27.28-50,42.38,11.9.7,21.47-5.71,29.22,4.65,6,8.07,18,2.89,27.09,4.85,9.76,2.1,19.4,4.73,30.63,7.51-7.65,16.15-26,17.58-35.15,31,11.8,8.66,24.55,11,38.07,13.2-4.1,2.94-7.53,4.76-10.16,7.39-14.78,14.78-16.07,26.33-1.62,41.62,20.83,22,28.32,51,42.37,76.5,1.5,2.72-.22,7.22-.72,15.31-11-15.3-16.34-30.56-34.26-39.23,11.8,37.82,3,74.94,10.15,111.39,3.55,18.12,1.74,37.34-8.74,58.93V654.66c-26.5-18.64-47.5-40.37-69.37-61.23-20.54-19.6-43.31-36.65-70.32-47-7.91-3-15.65-7.49-25.58-.22,10.9,15.71,32.46,13.57,44.18,26.91,11.24,12.8,24.22,24.14,34.79,37.44,11,13.77,21.12,28.6,22.25,49.71-36.13-43.8-54.87-60-81.36-70.72-4.59,7.15.79,12.9,3.44,18.3,15.53,31.51,29.52,63.43,33.9,98.77,1.45,11.69,11.24,19.55,16.11,31.68-7.49.83-10.15-4.52-12.62-8.36a197.14,197.14,0,0,1-26-59.65c-8.55-34.35-23.15-42.63-60.7-35.45-4.79,7.5,3.82,9.11,5.88,13.61,2.47,5.42-5,10.34-.6,17,7.74,8,19.47-2.44,30.41,4.54-18.28,18.68-35.93,36.9-53.79,54.91a72.35,72.35,0,0,1-26.14,16.89c-19.6,7.34-33.87,20.15-42.75,39.29a263.16,263.16,0,0,1-15.18,27.32c-11.79,19.07-15.34,39.39-16.51,62-2.24,43.27-9.59,85.58-28.61,126.06-29.41,62.6-61.26,123.46-99,181.52-24.77,38.07-45.77,78.64-67.45,118.64-8.58,15.83-11.28,34-14.41,51.71-2.62,14.83-4.64,29.77-9.57,44.65l-2.68-38.26c-4.7,17.65-.67,37.75-11.53,52.73-7.73,10.68-3.31,24.38-14.42,34.39-8.33,7.51-10.32,21.91-15.53,33.06-8,17.07-23.66,26.86-37.5,38.16-6.27,5.12-15.72,4.22-21.37-.68-11.23-9.75-22.1-8.26-34.35-3.44-15.16,6-30.08,9.41-46.57,1.77-10.62-4.93-22,2.62-34.69,5.16-8.28-14-20.57-21.57-37.56-24.07-16.66-2.45-32.28-10.58-49.79-10.33-8.8.12-16.12,2-23.85,6.91-19.31,12.3-34.89,28.7-51.9,42.26-.09,9.73,4.75,15.65,9.69,21.36,29.81,34.49,57.32,70.6,78.8,111,4.6,8.65,10.38,15.93,20.8,17.78,38.69,6.85,69.3,30.39,100.41,51.4a505.12,505.12,0,0,1,74.27,61.51c13.52,13.51,31.63,20.67,47.41,31.1q68.79,45.44,137.34,91.21c1.37.91,1.92,3.07,2.85,4.65H991c-5.62-13.37-19.28-17.71-29.62-25.42-35.42-26.42-69-55.29-105.72-80-14.85-10-30.38-18.89-45.14-29.09C791,1772.69,768,1765,740.28,1762c11.75,9.64,22.25,13.89,31.21,21,22.73,18.15,46.47,35.12,70.52,51.5,35.23,24,65.58,53,92,86.16H797.32c-19.69-31-39.36-62-67-87.51,8.59,13.59,16.31,27.15,18,43.18-19.67-10.86-26.28-30.9-34.16-49.77-1.1-2.63,1.29-6.12-2.95-9.06-13.78-9.55-20-24.84-27.24-39.08-18-35.53-36.38-70.81-57.09-104.86-1.92-3.16-5.43-7.51-4.53-9.91,6.9-18.27-7.85-26.93-15.5-39.34-17.35-28.19-43.29-49.91-57.91-79.72-13,4.78-13,4.78-19.6,17.63,6.4,10.44,15.16,19.64,15.6,34.39.8,26.57,7.42,52.21,21.7,75.42,3.84,6.26,4.68,13.71-3.8,22.39-7.55-15-20.57-25.52-21-40.62-.5-18.24-7.07-35.18-7.58-53.26-.57-20.67-11.48-35.81-29.52-45.31-11.95-6.29-21.95-14.79-31.68-23.89q-38.42-35.91-77.07-71.57c-1.91-1.77-3.92-3.85-5-3.39-12.16,6.43,11.49,19.69-9.76,24.34,9.06,11.59,5.31,24.82,5.31,37.82q0,51.26.3,102.49c0,7.31-2.4,15.51,5.83,20.58,3.11,1.92,3,3.82-.21,5.49-9,4.71-5.77,13.26-5.8,20.29-.17,44.29,1.79,88.56,1,132.86-.16,8.5,1.23,16.83,2.6,25.3,4,25,2.94,50.22-2,75.5-4.56-49.55-9.11-99.11-13.39-145.6-4.58-11.33-16-11.23-19.87-21.54l15.89,3.22c9.68-20.41-13.42-45.74,10.38-63.8.11-10.34,2.17-20.82-2.54-32.1-9.75-5.64-20.76-11.5-26.76-23,12,3.76,11.87-7.31,15.67-13.56,6.11,7.07-3,19.91,9.93,24,6.44-30.25.45-44.93-24.1-58.11q-23.56-12.64-47.71-24.2c-6.95-3.33-13.33-6.86-17.09-13.88,28.52,5.12,50.52,26.46,81.67,34.56,0-28.06.21-53.37-.08-78.67-.17-15.13-.39-30.09,12.45-42.07-12.09-11.81-22.05-23.3-33.73-32.63-34.77-27.79-63.81-61.39-95.51-92.28-5.47-5.33-13.23-11.91-12-18.33,2-11.13-4.9-12.1-11.06-16-3.75-2.37-6.13-6.92-9.13-10.49,5.91-1.74,6.77-6.36,5.35-11.16-12.73-42.85-16.08-86.85-16.41-131.22a58,58,0,0,0-7.53-29.32C183.22,1070,168,1034,181.05,992c6-19.22-2.66-35.29-21-44.77-12.21-6.33-20.83-16.47-28.2-27.3-4.88-7.16-9.54-14.84-16.54-19.17C101.56,892.27,98,879.24,96.57,865c-3.57-36-14.1-69.08-39.93-99.67,1.1,29.8-1.34,56.94,3,84.62C51,852.68,44,856.29,39.94,865.46c-7.5,17.15-16.63,33.59-26.27,52.66-6.56-16.94.62-29.78,7.2-39.76,10.79-16.35,15.84-31.49,7.45-50-2.16-4.77,1.17-11.1-4.55-17-2.94,16.34,1.78,32.43-2.85,47.86-9.57-3.87-9.45-10.74-9.56-17.35-.23-13.27-.25-26.55-.41-39.82-.09-7.45-4.76-9.56-11.25-9.42V433.69c4-1.29,6-4.62,7.32-8.13,11.75-31.71,15.37-63.84,4.1-97.62,10-16.26,10.53-37.62,24.64-52.87,5.16-5.58,9.58-11.17,11-19.31C48.6,245.08,34.62,244,35.27,233c3.41-4.09,7.23-9.49,11.87-14.06,11-10.85,20-22.46,21.42-38.78.38-4.32,3.68-8.58,6.22-12.48,5.73-8.79,4.91-17.22,1.6-26.94-7.1-20.86-5.13-41.07,7.14-60.38,22.3,7.83,40.13-.17,56.69-11.49,8.59-5.87,9.72-13.64.47-20.08-8.68-1.63-13.9,11.17-22.3,5.71-3.27-7.14.6-10.43,3.86-13.63,10.12-9.93,19.43-20.83,31.69-28.34C158.56,9.68,160.38,6,159.22.7h34.19c-8.54,15.71-31,18.94-36.76,40.64L239,.7h28.48c-4,12-18,12-25.86,21.45,13.4,2.63,23.45-8.12,36-6.82,1,7.39-4.09,10.32-8.72,13.14q-29,17.69-58.18,35c-4.85,2.87-10.62,4.67-9.47,12.09-2.8-.18-5.78-1.06-8.38-.43-21.81,5.33-40.47,18.81-62.56,24.1-5.88,1.41-12.55,10.39-7.93,19.57,9.95,1.19,13-8.22,21.14-9.13,24.67-2.76,44-13.64,60.3-31.87,6.08,2.74,10.62,0,15.55-3.52C244.3,56.4,274,48,300.29,30.75c3.31,15.72-6.79,21.71-14.09,28.35-28.65,26-91.84,62.26-148.26,69.6-7.37,1-13.4,9.13-9.76,15.89,3.85,7.15,7,13.51,4.82,21.58-36.07,25.33-41.64,22.9-45.83,52.67,23.49-27.63,52.19-41.18,82.22-53,28.08-11.08,56.68-21.68,80.22-41.54,6.37-5.38,15-2,21.67-7.36,2.73-13.44,12.18-22.52,23.18-30.19,23.23-16.2,46.22-32.82,70.13-48,14.35-9.08,29.65-17.52,45.66-22.86,13.2-4.4,27.07-12.31,44.05-6.59-22.55,25.74-53.86,32-82,45.23,9,6.79,15.17-4.43,22.87-.54-1.67,10.84-14.65,13.83-16.95,24.27,14.07,6,26-.26,37.72-6.45,21.07-11.08,42.88-20.6,66.42-24.25,10.43-1.63,20.17-4.94,30.25-7.33-.89,1.65-1.37,3.91-2.75,4.87q-37.15,26-74.54,51.58c-8.58,5.85-19.17,9.31-26.61,23.25,44.7-20.46,85.83-36.88,133.36-46.68l-15.8-6.4c39.86-18.21,77.54-39.27,123.64-48.35C627,43.66,599.8,54.69,572.69,66c2.06,5.57,10.53,4.23,11.84,11.83-13.83,10.94-33,9.78-48.15,20.5s-34.11,15.79-51.87,22.08c-15.6,5.52-31.82,9.29-47.77,13.84,52.19,1.07,96.58-28.74,153-37.56-20.89,14.39-37.62,23.43-51.24,35.87-20.88,19.07-40.82,38.93-66.73,51.33-2.66,1.27-2.46,2.84,2.24,4.67,16.28-2.84,34.35-5.62,49.61-17.22,14.18.57,28.08.14,42.2-3.15,19.16-4.46,38.78-2.87,61.21-.63-10.53,11.59-22.83,15.3-32.46,12.58-11.71-3.32-21,.12-29.84,4-25,11.09-49.42,23.62-73.76,36.19-4.2,2.17-9.89,5.07-9.1,13.4,10.1-3.45,21.27-11.57,29-9.08,20,6.4,36.73-2,54.15-6.86,2.47,4.32-1.54,10.29,6.34,10.81a34,34,0,0,0,23.89-7.34c29.12-23.51,51.69-51.46,59.8-89.46,5.77-27.07,16.27-52,40.09-68.93-.85,18.92-21.23,29.95-19.87,50.27C696,83,725,61.1,749.65,35.06c3.22-3.4,7-9,10.44-9,24,.42,39.9-17.34,60-25.36H837.2C806.87,21.41,776,41.43,746.35,63.05,721.73,81,700.89,103.16,683.06,128c-2.69,3.75-6.22,7.33-3.49,12.85,5,3.59,8.9,0,12-3.06,8.18-7.9,15.77-16.42,23.78-24.51,11.67-11.76,23.65-21.49,40.39-27.59,21.92-8,41.47-22.48,62-34.24,29.65-17,61-29,96.68-30.39-10.68,5.79-21.66,11.11-32,17.5C871.57,45.31,861.28,53.08,848,62.32c18.3,2.89,30.95-4.51,43.78-9.37,13.2-5,25.2-11.39,40.48-6.67,12.25,3.77,23.46-6.05,35.87-6.88,7-.46,13.83-7.13,19.42,3.37,2.19,4.13,8.63,3.06,13.31,3a201.1,201.1,0,0,1,66.85,10.58c9.85,3.38,16.64-1.17,23-7,6-5.57,8.85-14.39,18.71-18.24-1.6,12.12-3.75,22.33-14.57,29.28-5,3.24-10.87,6.55-9.93,15.37.71,6.68-9.07,9.41-12,8.57-15-4.34-27.48,2.39-40.71,6.54-30,9.4-60,18.14-91.56,6.82-2.38-.86-5.45.19-8.84.39-.81,6.88,5.25,6.59,8.37,8.29,4,2.19,8.78,3.09,13.7,4.71-22.29,4-38.85-1.81-53.46-19.29-29.22,3.48-55.93,18.13-86.47,23.49v59.25c-9.29-.19-9.07-7.89-13.32-11.27-.86,1.36-2.27,2.61-2.42,4-2.25,20.69.79,41.59-3.48,62.32-2.24,10.89-.83,11.09-4.33,14.47-2.67,2.59-5,5.52-7.07,7.83,1.3,10.95,17-.93,17.4,12.9.17,5.19,9.91,3.68,14.73,2.14,13.89-4.44,27.62-3.52,43.62-2.27-16.08,9-31.61,10.88-47.54,13.38,6.66,3.49,13.34,6.93,20,10.48,34.47,18.51,65.72,40.72,86.77,74.86a18.92,18.92,0,0,0,8.24,7.43c15,6,23.53,19,33.07,30.51s16.46,25.77,33.6,28.11c18.87,25.2,47,40.78,67,64.78,2.3,2.76,4.71,6.63,4.65,10-.46,30.55,4.69,61.23-1.08,93.89-10-6.62-16.31-16.08-13.87-23.84,6.07-19.25-3.44-35.05-7.91-51.75-3.82-14.26-11-27.62-18.62-40.79-2.13,13.78,7.74,25.4,6.7,42.11-12.1-14.76-22.22-27.41-32.71-39.74-3.93-4.63-6.83-11.28-15.86-6.09-5.77,3.31-10.25-3.25-14-7.28q-20.87-22.73-41.25-45.9c-13-14.8-25.91-29.18-47-33-11.41-2.08-19.11-11.88-29.08-19.88-11.45,7.17-22.79,4.6-33.79-2.43-38.06-24.33-82.06-33.66-124.14-47.15-24.61-7.89-50.79-4.46-70.5,13.66-11,1.23-17.51-5.75-26.7-7.76-5.46.56-8.47,9.72-16.32,7-3-1.91-3.27-5.89-1.5-7.27,27.42-21.41,55-42.64,85.61-59.48,21.33-11.75,43.09-22.75,64-35.21,10.56-6.29,24-6.33,35.36-18.87.58-23.17,2.31-49.21-1.15-76-30.33,6.14-57.33,17-83.16,30.72-14.83,7.86-25.58,19.73-36.71,33-23.2,27.62-27.9,60.82-37.47,92.85-.83,2.76-1.62,5.24-6.71,7.06-12.16-12.85,1.18-25.77,1.86-38,.69-12.59,9.63-24,10.3-41.62L584,244.26l-9.89-7C549.26,247.61,524.38,258,503,275.4c5.13,7.36,10.57,3.66,14.89,1.28,14.26-7.84,30.16-10.93,45.16-16.55,9.19-3.45,18-5,27.71-.13-.88,9.08-2.74,16.39-12.51,20-19.39,7.14-34.74,21.43-52.75,31.13-4.48,2.41-9.79,5.49-10.24,12.09,8.16,3.7,10.65-7,17.95-6.54,5.08,10-1,15.1-8.63,20.19-25.38,17-53.67,26.89-82.88,34.55-6.51,1.71-12.61,3.73-17.85,8,8,9.34,22.55-11.92,28.49,7.34,21.08-20.21,49.67-17.53,74-26.9,4.21-1.62,9.37-.6,14.54,5.4-20.84,12-45.59,12.72-68,24.24,14.41,9,23.48-.39,33.27-4.14,6.21-2.38,11.92-5.38,18,3.65C504.92,401.6,481,403.13,461.74,419c17.16,8.3,28.09-14.25,44.33-4.65-3.55,9.2-13.37,14.55-13.89,24.89-27.44-.08-53.1.37-74.67,21.49,22.35,1.12,41.15-16.9,64.84-7.51-6.18,6.84-7.25,15.1-5.71,24.67-22.53,2.51-43.27,8-67.27,15.8,24.43,7.28,44.85-10.67,66.93-.48-8.07,16.31-26.64,3.4-36.31,13.34-.39,8.61,5.35,11.19,12.45,12.16,10.85,1.48,21.09-.67,29.08-8.19a71.35,71.35,0,0,0,13.9-17.81c13.45-25.07,32.31-46.33,48.5-69.44,5.74-8.19,8.15-16.55,10-26.89,10.66,10.59,12.23,19.49,2.6,31.4-16.58,20.5-31.44,42.39-47.33,63.47-6.76,9-14.24,17.39-12.82,32.06,19.8-21.66,29-49.52,54.42-63.52-13.49,22.3-28.7,43.37-41.55,69.56-.49,2,6.38,1.07,6.32-1.39,1.33,12.9-3.48,13.72-8.15,14.71-3.8.81-7.18,2.25-9.56,7.46,4,5.82,12.32.52,16.81,5,1.38,4.48-5.06,4.26-4.64,10,9.42,4.58,16.9,12.41,14.82,24,9.28,7.06,22.17,5.12,26.07,17.09-4,4.33-8.82-4-13.4,1.88,11.51,26.65,30.74,50.62,34.57,81.2,20.35-.27,37.33-12.29,56.66-9.37-.4,12-11.27,8.53-16.24,13a36.7,36.7,0,0,0,4.37,2.23c8.47,3,18.66-8,23.88-1.48,6.59,8.25,14.93,6.55,23.19,10l-5.84,6.11c7.43,7.88,14.7-4.13,22-.43-.35,1.48-.36,3.22-1.14,4.48-3,4.78-10.9,4.1-12.25,10.83-33.4,3.17-61.14,21.33-90,31.18-1.91,7.09-1,10.39,4.92,14.49,26.58-16.53,58.32-26,84.51-46.32,10.16,1.85,18.21-3.73,26.92-7.35,8.44-3.51,15.85-10.6,30.09-7.9-48.89,29.73-100.79,45.85-145.79,71.37-10.12-1.14-12.24-8.27-17.92-17.28-1.13,26.05-3.67,47.8-10.84,70.71-9.44-6-8.44-13.27-6.29-18.72,3.6-9.16,3.62-18.42,4.45-27.84s-3.23-16-9.93-20.83c-3.26-7.54,10.08-6.2,5.62-15.13-9.57-2.94-18.46,4.33-28.05,5.1-10-4.59-5.3-18.23-14.48-23.32-5-.84-3.89,5.56-7.64,6.37-7.15-2.32-8.5-9.7-11.91-15.09-4-6.42-10.58.32-15.12-4.28-5.48-5.54-10.08-11.56-12.66-18.67-7.35-20.21-18.06-39.64-15.77-62.31l5.8-8.88c-5.43-6.58-10.6-12-14.85-18.16C421.55,603,410.13,598.9,404,603.3c-14.76,10.68-29.2,2.4-43.53,3.14-.21,5.61,9.05,7.23,5,14l-13.39-3.41c-5.15,2.13,1.51,7.47-2.72,9.21-6.21,3.57-11.07-6.79-18.89-.4l27.73,17.52c11.45-23.3,33.91-25,52.53-32.41,7.67,7,3.19,15.56,6.08,22.36-2.43,4.31-6.13,3.23-11.92,1.61,2.56,18,1.52,35.54,10.74,52.2-11.35-.17-9.67-13.21-21-12.92,8.18,19,7.23,40.17,24,58.85-11.87-5.77-17.21-10.11-22.61-17.1-.73,12.34-.73,12.34,6.76,26.06-.3.82-.34,2.05-.92,2.41-3.94,2.42-8,4.66-13.23,7.67-16.14-23.69-43.8-33.79-61.17-55.46-18.31,11.46-18.38,11.82-6.76,28.67,3.89,2.09,3.35,5.78,3.36,9.28,4.68,24.47,19.78,42.37,39,59.4-4.41,8.29-11.87,14.84-13.19,23.07,1.44,11.53,10.71,18.33,14.48,29.2l-9.33.66c-3.93,10.83,10.25,17.12,7.72,27.84-7.9,3.51-10.17-11.64-19-6,3.36,10.44,15.37,14.09,18,24.47-3.3,5.78-6.09,6.31-10.09.48-3.48-5.06-7.91-3.7-12.61,1.25.12,7.52,11.54,11.26,8.57,20.93-2.51,8.18,6.18,13.81,7.19,20.29.89,5.67-5.89,12.53-10.18,20.56,1.35,7.43,11.05,9.14,16.76,14.84-6.28,4.27-4.09,10.61-4,17.14-11.64-.07-19.36-6.4-25.66-19.5-3.39,21.28,20.42,28.86,13.26,47.29-15.65,8.54-29.86-7.62-52.55-7.24,13.8,7.29,21.53,14.6,29.7,15.13,28.72,1.85,37.6,24.38,45.6,44.61,6.57,16.61,18.06,28.11,28.38,41.1,13.25,16.67,31,22.9,52.06,19.65,2.86-.44,5.41.6,6.06,5.9-7.53,9.71-21.1.63-30.52,7.69l25,8.49c12.93-9.6,25.46-19.51,40.88-26.77,0-29,.09-57.42,0-85.82-.05-9.69-.52-19.41,10.26-24.31,6.48-3,5.38-9.14,7-14.38,9.45-29.7,20.64-58.7,36.08-86.25,5.82,5.65,2.46,10.62.53,15.66-8.09,21.18-13.84,43.14-22.71,64.13-4.46,10.57-11.9,22-5.93,35.81l38.37-99.32c6.5,6.56,3.32,11.3,1.42,15.8-15.08,35.7-26.35,72.69-37.87,109.63-3.85,12.33-5.18,23.85-.36,36,4.56,11.51,4.76,23.13-1.95,33.88,11.74,5.47,18.7,1.41,26.86-5.38,18.12-15.09,35.76-31,57.08-42,9.26-4.77,18.22-9.68,28.05-13.41,10.27-3.9,21.77-6.65,28.81-16.57l-.93.77c12.48,2.06,23.65-5.73,39-5.58-4.6,9.45-10,14.75-18.25,16.64-34.61,7.92-64.28,26.52-94.92,43.16-20.63,11.2-32.25,28.05-34.91,51.26A3.47,3.47,0,0,1,542.26,1156.77Zm-172.7-29.08c3.47.06,7.31,1.87,10.89-3.52-19.16-9.45-35.91-24.08-61.45-22.77l8.37,7c-3.67,8-17.3-2.37-18.85,11.14,14.76,13.41,33.07,8.52,50.4,8.66-6.7,17.89-5.9,20.36,10.4,20.42,6.54,0,10.29,3.05,13.33,4.87l-13.57,14.3C356.78,1169.51,348,1157.5,338,1153c-9.85,6.65,7.22,14.56-2.64,18.67,22.35,10,51.2,2.78,73.65,21.44-12,9.3-25.33,0-38,7.57,22.28,8.66,47.4-.7,69.27,18.64l-62.4,4.13c3.21,5.13,7,5.61,10.43,7.06,23.11,9.66,46.27,1.21,69.34.31,19.16-.75,19.13-1.51,19-24.72-2.63-1.87-7.36,2.43-9-4.43,5.28-6.88,2.65-17.41,7.91-25.36,4.76-7.21,9.4-14.19,9.78-23.44-12.4,16.34-27.66,29.23-43,43.7.59-4.8,2.63-9,.18-14.45-14.29-2.19-30.52-2.85-40.7-16.91l7.08-6.47C396.36,1147,375.9,1145.71,369.56,1127.69Zm433.51,266.67c11,8.5,1.64,18.81.53,28.49,15.37-2.33,5.68-20.73,19.28-23.59,6.27,11.72,1.34,24.39.19,36.57,21.41.41,9.34-18.16,18.92-26,.55,13.59.92,25.7,1.66,37.79.15,2.56,1.86,3.11,3.58,1.32.35-2.22.73-5,1.22-7.7.64-3.55.44-7.68,5.34-8.57,6-1.45,4.83,7.95,10.84,6.88,11.34-7.53,1.92-17.19,1.79-25.68-.13-9.14,3.55-21.5-4.94-26.66-8.25-5-10.29-15.25-18.83-19.68-5.29,12.15-24.65,4.15-25,20.46l-11-1.83c1.63-7.24,3.27-14.49,4.93-21.86-9.42-4.87-10.57-16.65-18.1-23.29l-10.9,7.51c-.24-8.64,4.88-18.52-5.43-23.58-5.92,0-10.95,5.25-16.59,1-.41-3.65,6.42-3.15,3.41-9.82-9.45,0-21.44,3.36-29.72-.75-13.83-6.87-20.85,5.86-31.44,6.33-1.65.08-3.37-1.23-5.05-1.9,3.19-4.69,11.65-5.16,12.07-13.42-9.17-2.28-16.1,1-23.41,2.64-8.11,1.85-15.62,7.19-26,4.86-3.72-11.43-12.93-16.61-26-16.38,12.37-3.44,24-6.15,35.81-12.66-5.49-.87-12.85-.24-13.86-2.48-6.25-13.85-18.18-10.48-28.91-11.08-2.84-.16-5.7,0-8.53-.25-32.52-2.79-47.35-10-67.12-32.38,3.08-1.39,7.38-.71,9.23-6.76-11.88-.9-15.45-17.23-28.13-15.64-12.26,1.53-19.26-17.41-36.81-2.48-4,6-10.25,18-21.52,25.58,6.62,6.91,18.17-.78,20.05,10.06,1.47,8.51,6.6,9.68,13.67,11.21,12.68,2.74,25,7,43.89,12.49-28.19,7.44-49.67,3.5-71.2,1.84,13.15,11.26,28.75,5.69,43.2,7,14.29,1.35,28.88-.38,45.27,2.12-26.73,25.24-56.34,6.54-89.58,11.88,23.94,5.5,41.06,10.45,59.24,8.81,9.84-.89,20.54.44,26.22,8.11,7.15,9.65,16.12,8.2,25.31,9.19,15.74,1.69,31.16,4.62,46.53,12.93l-23.44,11.76c-3.39,1.44-6.83,4.24-10.17,4.12-21-.76-40.88,8.12-62,6.33-6.71-.56-13.61,1.12-22.25,1.94,7.44,9,15.41,9.75,22.59,8.14,28.76-6.48,58.52-2.59,87.19-8.88,15.53-3.41,30.16-1,43.86,5.86,3.47,1.72,2,9.52,9.88,10,11.23.73,24-5.2,33.17,8.64,2.73,4.1,13.08-7.18,18.37-3.17,13.59,11.29-4.66,20.9,2.62,30.84,9.64-10.76,17.05-26,35.53-18.32.76,5.36-5.26,9.48-.15,14.34C784,1406.5,792.43,1397.57,803.07,1394.36Zm-745-844C83.72,497.61,121.55,456.17,168.64,423c4.52-3.18,10.67-3.95,15.63-6.65,12.31-6.72,24.74-3.68,35,2.51,11.08,6.71,21.92,14.68,30.38,25.2,8.58,10.68,14.61,21.61,12.82,36.16-2.83,22.86,3.54,45.21,5.74,67.76C269.9,565.69,278.6,581.17,298,596c-.22-15.18,10.37-22.33,10.41-33.16,0-12,10.6-20.15,9.65-33.61-9.55-20.7-26.78-39.54-30.68-66.39,10.08,1.59,19.82,8.6,30.45,1.32,1.07-20.35-5.55-36.57-24.9-46-18.77-9.16-31.44-23.81-40.05-42.54-2.26-4.9-1.19-11.71-10.33-15.4-33,5.75-67.94,13.35-100.62,28.71-9.29,4.37-18.7,10.16-25.59,17.58C102.88,421,91,437,78.74,452.61c-5.87,7.44-10,15.4-11.55,25.37-2.2,14-6.95,27.57-19.51,36.61-5.73,4.13-7.18,10.67-9,17.19-12,42.52-13.74,85.3-6.21,128.9,5,28.78,20.06,52.92,32,78.59C75.4,762.79,91.28,782.18,111.07,799c26.66,22.68,56.18,41.81,81.3,66.44,4.29,4.2,8.8,10,18.11,10.94,2.85-6.87,12.58-12.85,13.24-18.86,1.92-17.38,12.61-29.95,18.66-44.88,8.42-20.8,22.23-39.25,25.58-62.35,4.73-32.68,9-65.43,15.52-97.9,2.9-14.46,10-28.94,5.5-45.51-4.54-4.83-9.55-10.5-14.93-15.8-20.57-20.26-28-45.87-30-73.61-2.29-31.34-7.3-46.29-25.79-74.08-3-4.52-.58-11.9-7.7-14.3-28.64-1.14-40.16,5.9-49.67,30.72-2.36,6.16-3.89,12.65-6.43,18.73-10.33,24.73-27.73,43.62-53.34,50.85C85,534,70.9,539.56,58.11,550.34Zm1391.94,34.38c-1.81-24.33-19.65-45.43-9.91-70.21,4.26-1.49,7.2,4,11,.39-1.57-13.82-12.31-22.84-18.47-34.23-13.52-25-40.73-30.38-62.76-13.21-13.09,10.2-25.25,21-43.71,21.42-10.53.25-10.49,2.23-19,13.45,35-15.66,63-5.53,85.42,20C1411.23,543.45,1432.86,561.81,1450.05,584.72Zm-1121,716.75c-4.92-18.62-15.27-33.76-29.71-46.22-14.14-12.19-20.38-31.28-37.06-43.09,7.56,43.34,11.38,85.94,26.76,127.22,7.49-2.08,10.83-6.42,12.95-11.66,2.66-6.57,10.55-3.45,14.08-8.07-1.93-7.71-6.29-15.45,0-22.7C321.5,1296.57,322.52,1304.93,329.05,1301.47ZM257.61,938.23c6.1,12,17.92,19.59,22,32.24,3.88,12.11,12.31,18.14,23.36,22.34,10.53,4,20.82,8.64,33.19,13.82C320.17,969.34,289.1,953.61,257.61,938.23Zm931.3-837.91c-19,3.78-35.07,12.82-53.26,13.84s-35.8,4-51.14,15.57c15.35-6.3,31.15-3.29,46.62-3.21,16.31.09,31.44-5.7,47.32-7.62C1186.84,117.88,1191.28,111.65,1188.91,100.32Zm64.89,9.09c22.41-21.34,26.67-33.93,25-67-12.58,6.4-13,6.24-14.52,10.11C1257.58,69.57,1250.72,86.7,1253.8,109.41Z" transform="translate(0.3 -0.7)"/><path d="M318.75,1920.7H-.3V1664.32l13.89-2.8c9.5,14.74,23.49,25.84,35,39.28-.69,6.07-6.29,12.17-.21,18,4.83,4.86,10.83-5.33,17,4-4.34,9.44-1.69,19.28,8.36,26,7.6,2.26,12.89-4.37,19.65-3.71,0,9.24,3.49,14.66,13.85,12.24,8.89.66,8.74,9.09,11.22,14.35,12.51,26.57,28.19,49,52.21,68.15,33.88,27.06,69.24,49.55,109.65,64.57,7.92,2.94,14.75,9.45,25.16,9C298.7,1898.8,286,1890,284.8,1874.92l-.51.43C302.45,1885.4,309.62,1903.79,318.75,1920.7Z" transform="translate(0.3 -0.7)"/><path d="M130.4,1546.72v-25.8c-15.19-10.6-35.06-10.53-49.65-22.3,19.2-4.79,34.42,9.32,52.48,9.68,6.37-7.73.61-19,9.28-25.37-27-19-104.17-40.61-142.81-40.81v-68.37C30.12,1383.2,60.48,1392.89,91,1402a423,423,0,0,1,40,14.17c11.72,4.81,23.64,13,37.65,1.32,6.15,16.56,20.19,21.52,31.28,30.69-7.85,5.08-14.16-3.58-21.37,2.68,19.53,12.19,41.95,16.9,59.43,34,15.92,15.54,43.3,17.36,64.22,38.27-48.12-15.57-87-42.91-138.58-53.84,14.24,13.54,29.51,14.54,38.17,25.11-13.37,2.42-24.73-10.42-40-4.64-1.81,8.14-3.78,17-5.89,26.45,3.78,2.21,6.77,4.6,10.18,5.87,54.88,20.58,106.17,48.53,157.52,76.38,7.47,4.06,15.47,7.38,19.91,15.35-9,0-16.12-4.91-23.7-8.75-50.45-25.56-100.09-52.8-152.87-73.54-4.36-1.71-8.32-4.64-15.77-2.27-7.91,39.65-18.06,80-15.76,121.79-10.14.75-10.45-4.77-9.94-9.08,2.17-18.65,4.64-37.28,7.61-55.82,2.67-16.64,6.32-33.13,9.12-49.76.58-3.45-.63-7.19-1.27-13.19C133.78,1531.31,139.48,1542.39,130.4,1546.72Zm-94-146.62q55.16,20.33,110.36,40.52c1.28.47,3.28-1.06,4.92-1.65.93-4.55-1.35-6.6-5.48-7.84C109.79,1420.15,75.72,1401.38,36.37,1400.1Z" transform="translate(0.3 -0.7)"/><path d="M284.8,1874.92c-15.12-10.42-30.93-18.22-38.64-38.41-5.57-14.58-24.57-21.81-34.46-36.09-25.48-36.78-58.67-66.78-91-97.17C87.28,1671.87,61.91,1634.39,35,1598,24.9,1584.2,13.66,1571.69-.3,1561.77V1539c25.47,18.16,44.61,43,67.15,64.19,12.28,11.57,23.5,24.25,37.78,39.11,7.06-28.08,9.06-53.87,20.72-76.75,1.23,20.11-4.36,39.35-9,58.43-4,16.42-.87,27.93,10.65,40.77,42.25,47,82.07,96.31,124.91,142.79,15.82,17.17,32.65,33.59,48.15,51.21,6.26,7.12,12.86,14,15.77,23.3-16.78-6.39-25-23.91-41-32.78-1,11.15,12.79,15.44,9.49,26.1Z" transform="translate(0.3 -0.7)"/><path d="M-.3,1106c21,3.55,37.45,17.32,56.3,25.71,3.36,1.5,5.83,5,9.21,6.5,26.27,11.28,34.17,5.2,37.09-23.19,3.84-37.25,9.71-74.4,19.86-110.51,3.5-12.46-.57-27.11,12-38.81,5.81,17.31.06,34.86,3.53,51.66-2.59,1.65,5.5,2.31,2.77-.32a10.82,10.82,0,0,1,1.76-1.94c1.13-.88,2.38-1.59,4.81-3.15,1,17.82-1.56,34.21-3.36,51-3.41,31.74-9.84,63.47-7.2,95.77.83,10.23,1.32,20.69-3.81,30.42,22.69,26,52.56,44,73.77,71-11.8.68-19.51-8-26.81-14.32-53.93-47-115.67-81.12-179.89-111.33Z" transform="translate(0.3 -0.7)"/><path d="M93.36,1745.12c-22.64-44.48-48.69-86.81-79.49-126.14-4.6-5.88-9.44-11.56-14.17-17.33v-11.4c7.89,2,12.52,8.49,16.73,14.31,31.2,43.09,61.75,86.64,85.81,134.31,2.94,5.82,6.6,11.44,5,18.49C96.85,1759.78,93.41,1754.36,93.36,1745.12Z" transform="translate(0.3 -0.7)"/><path d="M854.61,564.41c-1.26,18.2,17.89,16,29.58,28.66-35-8.29-64.44-16.62-87.23-39.94,10.56-14.36,24.26-27.78,14.6-49.48-14.45-3.12-28.59-6.85-40.08,4.13-1.62,22.81,18.41,30.71,26.36,46-11.35,1.31-19.57-4.61-28-11.16-19.56-15.17-26.5-23.75-34.86-45.91.92-1.58,1.53-4.21,2.81-4.59,32.6-9.74,65.7-14.23,99.38-6.84,9.1,2,17.42,7.46,26.5,9.75,30.06,7.57,51.77,24.95,65,52.93l-.65-.81c0,16.07.84,32.19-.14,48.2-.78,12.6-5.71,14.57-21,11,7.2-56.75,6.37-59.25-29.11-85.06C868,534.92,867,553.45,854,565c.52-16.35,11.24-32.13,3.3-48.95-7.87-2.05-14.46-7.85-24.67-6.3,7.74,10,13.25,18.21,8.42,29.74-4.07,9.71-13.64,4.46-26,8.33C832.44,554.06,838.51,569.51,854.61,564.41Z" transform="translate(0.3 -0.7)"/><path d="M957.54,1203.89c-35-29.76-64.81-66.41-108.81-84.17-41.81-16.88-83.34-34.47-131.72-44.09,12.11-6.12,21.44-4.81,29.65-3.37,35.06,6.14,70.35,8.71,105.79,11.58,34.66,2.81,68.83,11.75,91.42,42.3,5.33,7.21,12.86,10.93,19.15,16.5,7.26,6.43,6.84,5.7,1.83,18.24a40,40,0,0,0,.1,30.29C967.55,1197.52,962.68,1199.19,957.54,1203.89Zm-106.75-98c16.06,9.62,32.47,18.71,48.08,29,15.34,10.13,29.86,21.48,44.48,32.11,10.8-10.65,6.07-17.91-.33-26.13C920,1111.34,887.22,1105.15,850.79,1105.88Z" transform="translate(0.3 -0.7)"/><path d="M928.69,548c-.13-27.17-12-46.73-38.15-55.59-24.06-8.14-46.29-20.58-71.69-26.07-19.11-4.13-37.28-5.23-55.66-.9-10.39,2.44-20.18,2.74-32.53,2.25,51.85-34.6,177.13-1.26,229.05,59-3.17,6.26-7.92-.49-13.33,2.29,4.81,10.73,5.41,22.76,5.86,33.29,8.14,9.58,22.54,10.72,21.94,25.95C973.43,607,977,626.5,962.44,642c-6.4,6.83-12.24,14.51-21.26,18.67-9.58-.33,2-17.54-14.62-11.39,6.74-11.73,10.82-20.1,16-27.68,10.34-15,9-30.29,1.69-45.55-4.79-9.94-10.79-19.29-16.25-28.9Z" transform="translate(0.3 -0.7)"/><path d="M960.65,807.43,940.88,817.7l7.63,6.23-5.8,11.55c5,4.69,13.62-1,18.26,8.74-22.77,5.23-46.32,7.27-64.18,23.41-8,15.81,2.38,28.93,7,42.06-6.33,9.8-13.22,9.83-18.36,1.54-8-12.88-12.71-27-10-42.69.95-5.45,2.71-11.15-2.14-17.61-22.17,3.29-38.57,23.28-68,27.61,27.39-21.7,51.76-35.34,76.32-49.11C905.72,815.93,932,811.36,960.65,807.43Z" transform="translate(0.3 -0.7)"/><path d="M542.26,1156.77a3.47,3.47,0,0,0,3-1.89c8.5-2.47,17-6.84,20.47-14.38,6.46-14,18.71-22.35,30.76-27.3s12.31-22.78,28.4-21.49l6.65,12.59c-13.5,10-20.4,23-22.82,39.43-1.94,13.29-12,23.34-21.36,32.6-7.66,7.59-17.67,5.58-26.68,2.27-4.12-1.52-7.39-5.37-10.46-7.71-5.56,1.1-7.31,7.7-13,5.94a6.08,6.08,0,0,1-1.82-7.67C537.42,1164.89,540,1160.88,542.26,1156.77Z" transform="translate(0.3 -0.7)"/><path d="M655.28,1048.63c-18.77,0-33.47,11.74-50.29,17.34-4.92,1.64-9.89,6.56-15.19.51,22.12-21.76,149.17-71.4,186.61-71.73-14.37,4.66-27.32,12.21-40.81,18.67-3.29,1.58-8.78,2.79-9.36,5.14-4.8,19.45-22.07,15.21-34.29,16.7-14.24,1.72-27.21,3.57-37.6,14.14Z" transform="translate(0.3 -0.7)"/><path d="M1495.05,260.17c3.66-7.48,12.61-12.44,8.67-22.31l25.41-8.23c1.5,3.19,3.89,5.79,3.61,8.07-3.71,30.48-18.58,54.6-45.38,72.3,4.83-10.45,9.42-21,14.56-31.3C1506.33,269.88,1502.58,264.5,1495.05,260.17Z" transform="translate(0.3 -0.7)"/><path d="M324.17,734.62c0-3.5.53-7.19-3.36-9.28-1.59-5.4-3.37-10.8,1.37-16.74,12.74,13.19,25.53,26.13,38,39.41,7.53,8,5.47,16.86.63,27C342.11,766.76,339.36,744.81,324.17,734.62Z" transform="translate(0.3 -0.7)"/><path d="M1404.24,206.58c-2.19,9.36-1.75,20-6,26.62-6.88,10.65-18.17,18.44-27,26.83l-12.61-13.77C1365.4,226.14,1388.51,221,1404.24,206.58Z" transform="translate(0.3 -0.7)"/><path d="M1542.37,217.26c-16.64-5.31-31.3-8-46.15-2.6-4.61,1.68-11,3.1-13.08-1.12-4.27-8.46-13-3.08-18-7,.48-5.93,5.1-5.15,8.38-6.41,17.17-6.56,35-.39,52.48-2.11C1532.22,197.43,1543.07,202,1542.37,217.26Z" transform="translate(0.3 -0.7)"/><path d="M1416.32,199.84c31.71-26,62.74-34.06,111.59-31.3C1486.6,177.48,1449.1,180.66,1416.32,199.84Z" transform="translate(0.3 -0.7)"/><path d="M1369.08,219.12c2.52-26.94,9.56-53.08-.92-79.08,6.88-1.53,9,1,9.31,5.19.51,7.46,1,14.93,1,22.4,0,9,6.46,10.09,15.16,11.77C1383.32,191.94,1378.38,206.56,1369.08,219.12Z" transform="translate(0.3 -0.7)"/><path d="M694.38,63.86c-.3-2.76-.59-5.51-1.29-12C639.76,98.62,585.51,140.51,524,171.89l-12.49-3.17A798.57,798.57,0,0,0,693.22,26.1c5.4-.57,12.51,6.13,22.94,10.94C707.92,45.66,706.73,58.66,694.38,63.86Z" transform="translate(0.3 -0.7)"/><path d="M102.12,651.24c10.18,3.06,12,11,11.25,20-1.53,17.94,9.5,27.4,22.78,36,22.75,14.77,47.53,19.45,74.1,16.35,7.89-15.36,7.75-31.09.36-47.39,10.46,6.87,10.44,20.7,22.36,24.77,15.24-48.63,1.23-97-44.16-104.78-3.45,14.51,10.79,25.78,7.8,39.91-5.61-1-7.2-5.42-9.24-9.55-5.05-10.18-10.24-20.3-15.32-30.46-3.41-6.82-10.12-18.45-13.75-16.1-13.07,8.47-25.29-12.67-37.5.95-3,3.36-9,7.18-16.24,4.55,2.61-15.73,16.31-22.18,27.69-23.44,25.28-2.82,34.83-15.76,33-39.76,7.2-2.44,18.4-6.93,18.73-6.25,5,10.65,11.84-4.31,16.68,1.56,1.72,2.08,4.35,3.41,6.73,5.2,3.33-12.61,3.68-13.29,12-23.76a19.39,19.39,0,0,1,1.41,19.11c-6.17,12.86-3.12,23.53,3.62,34.68,5.4,8.93,7.2,19.11,9.83,29.22,4.22,16.21,3.19,37,26.16,42.75,2.79,15,2.77,30.14,5.55,45,3.27,17.43-1.55,33.88-18.59,44-3.24,1.93-5.88,4.86-9.13,6.76-31.91,18.68-38.29,47.4-31.07,80.8,2.21,10.19,5.33,19.8,1.73,29.47-8.62,2.28-11.47-3.06-14.33-7.9-11-18.64-21.91-37.37-33.14-56.57,9.76-5.17,14.31,12.87,25.75,5.28-3.36-13.1-14-21.82-23.81-28.89-22.9-16.55-48.13-30-60.15-58.12-11,8.62-4,18.61-8.91,25.49C81.48,696.5,82.44,689.15,102.12,651.24Z" transform="translate(0.3 -0.7)"/></svg>