<?xml version="1.0" encoding="utf-8"?>
<svg version="1.1" id="Layer_1" xmlns="http://www.w3.org/2000/svg" xmlns:xlink="http://www.w3.org/1999/xlink" x="0px" y="0px"
	 viewBox="0 0 1280 1024" enableBackground="new 0 0 1280 1024" xml:space="preserve">
<g>
	<path fill="#FFFFFF" d="M129,1c341,0,682,0,1023,0c0,341,0,682,0,1023c-341,0-682,0-1023,0C129,683,129,342,129,1z M643.46,771.9
		c47.05-1.11,53.63-2.04,83.47-12.85c126.92-46,198.61-173.91,168.33-303.05C858.99,301.28,711.65,233.39,589.8,258.86
		c-117.88,24.64-204.95,128.7-206.84,249.23c-1.15,72.97,24.32,136.06,75.94,188.4c36.09,36.59,79.61,59.68,129.16,70.9
		C605.95,771.44,624.96,770.54,643.46,771.9z M379.87,663.68c-33.9,70.73-67.24,140.29-100.58,209.86c0.57,0.44,1.15,0.88,1.72,1.32
		c69.59-33.14,139.17-66.28,209.22-99.63C445.87,745.63,409.28,709.18,379.87,663.68z M347.69,590.03c0.44-0.46,0.87-0.93,1.31-1.39
		c-10.59-50.6-10.94-101.16,0.03-152.26c-73.57,23.74-145.94,49.22-217.9,75.87c-0.03,0.73-0.05,1.47-0.08,2.2
		C203.26,539.64,275.48,564.83,347.69,590.03z M280.17,151.35c-0.37,0.38-0.73,0.75-1.1,1.13c33.15,69.31,66.3,138.62,99.43,207.91
		c17.5-20.39,33.68-40.3,51-59.16c17.4-18.93,37.52-34.91,60.62-49C419.18,218.14,349.67,184.74,280.17,151.35z M716.7,219.73
		c0.52-0.34,1.04-0.68,1.55-1.02c-25.38-71.9-50.76-143.79-76.14-215.69c-0.65,0.09-1.3,0.17-1.95,0.26
		c-26.35,71.76-51.72,143.86-76.06,217.44C615.79,209.64,666.23,209.96,716.7,219.73z M563.25,805.62
		c25.88,73.38,51.26,145.36,76.64,217.33c0.81-0.01,1.62-0.02,2.43-0.03c25.06-71.36,50.13-142.71,75.71-215.54
		C665.71,816.63,615.22,817.4,563.25,805.62z M1000.32,875.81c0.58-0.61,1.17-1.22,1.75-1.83
		c-32.71-68.24-65.42-136.48-97.91-204.28c-17.28,19.77-33.31,39.09-50.41,57.41c-17.31,18.55-37.18,34.29-60.61,48.34
		C863.25,809.41,931.78,842.61,1000.32,875.81z M1002.09,154.35c-0.54-0.48-1.09-0.95-1.63-1.43
		c-67.79,32.59-135.57,65.19-205.05,98.59c43.23,30.12,79.63,64.62,107.84,109.14C937.49,291.24,970.48,223.13,1002.09,154.35z
		 M1151.03,514.15c0-0.79,0.01-1.59,0.01-2.38c-71.66-25.25-143.33-50.5-214.99-75.75c-0.37,0.47-0.74,0.94-1.11,1.41
		c11.38,50.3,12.25,100.67,0.32,152.65C1008.33,564.36,1079.68,539.26,1151.03,514.15z"/>
	<path d="M643.46,771.9c-18.5-1.36-37.51-0.46-55.4-4.51c-49.55-11.22-93.07-34.31-129.16-70.9
		c-51.62-52.34-77.08-115.43-75.94-188.4c1.89-120.54,88.97-224.6,206.84-249.23C711.65,233.39,858.99,301.28,895.26,456
		c30.27,129.14-41.41,257.05-168.33,303.05C697.09,769.86,690.51,770.79,643.46,771.9z"/>
	<path d="M379.87,663.68c29.41,45.49,65.99,81.95,110.35,111.55c-70.05,33.36-139.63,66.5-209.22,99.63
		c-0.57-0.44-1.15-0.88-1.72-1.32C312.63,803.98,345.97,734.41,379.87,663.68z"/>
	<path d="M347.69,590.03c-72.22-25.19-144.43-50.39-216.65-75.58c0.03-0.73,0.05-1.47,0.08-2.2
		c71.96-26.65,144.33-52.13,217.9-75.87c-10.97,51.1-10.62,101.66-0.03,152.26C348.57,589.1,348.13,589.56,347.69,590.03z"/>
	<path d="M280.17,151.35c69.5,33.4,139.01,66.79,209.96,100.88c-23.1,14.09-43.22,30.07-60.62,49c-17.33,18.85-33.51,38.76-51,59.16
		c-33.14-69.29-66.28-138.6-99.43-207.91C279.44,152.1,279.8,151.72,280.17,151.35z"/>
	<path d="M716.7,219.73c-50.47-9.77-100.9-10.09-152.6,0.99c24.34-73.58,49.7-145.68,76.06-217.44c0.65-0.09,1.3-0.17,1.95-0.26
		c25.38,71.9,50.76,143.79,76.14,215.69C717.73,219.05,717.21,219.39,716.7,219.73z"/>
	<path d="M563.25,805.62c51.98,11.78,102.46,11.01,154.78,1.76c-25.58,72.83-50.65,144.18-75.71,215.54
		c-0.81,0.01-1.62,0.02-2.43,0.03C614.51,950.98,589.12,879.01,563.25,805.62z"/>
	<path d="M1000.32,875.81c-68.54-33.2-137.07-66.4-207.18-100.36c23.43-14.05,43.3-29.79,60.61-48.34
		c17.1-18.32,33.13-37.63,50.41-57.41c32.5,67.8,65.2,136.04,97.91,204.28C1001.49,874.59,1000.9,875.2,1000.32,875.81z"/>
	<path d="M1002.09,154.35c-31.61,68.77-64.6,136.89-98.85,206.3c-28.2-44.53-64.6-79.03-107.84-109.14
		c69.47-33.4,137.26-66,205.05-98.59C1001,153.4,1001.55,153.88,1002.09,154.35z"/>
	<path d="M1151.03,514.15c-71.35,25.11-142.7,50.21-215.77,75.93c11.93-51.98,11.06-102.35-0.32-152.65
		c0.37-0.47,0.74-0.94,1.11-1.41c71.66,25.25,143.33,50.5,214.99,75.75C1151.03,512.56,1151.03,513.35,1151.03,514.15z"/>
</g>
<g>
	<path d="M695.61,1022c157.31,0,300.98-71.57,396.16-188.84c14.08-17.35-1.27-42.69-23.03-38.55
		C821.3,841.73,594.08,652.01,594.08,402.24c0-143.88,77.02-276.19,202.2-347.43c19.3-10.98,14.44-40.24-7.48-44.29
		C758.06,4.86,726.87,2,695.61,2c-281.51,0-510,228.13-510,510C185.61,793.51,413.74,1022,695.61,1022z"/>
</g>
</svg>
