<?xml version="1.0" encoding="utf-8"?>
<!-- Generator: Adobe Illustrator 26.0.2, SVG Export Plug-In . SVG Version: 6.00 Build 0)  -->
<svg version="1.1" id="Layer_1" xmlns="http://www.w3.org/2000/svg" xmlns:xlink="http://www.w3.org/1999/xlink" x="0px" y="0px"
	 viewBox="0 0 957 957" style="enable-background:new 0 0 957 957;" xml:space="preserve">
<path d="M877.82,957H79.18C35.45,957,0,921.55,0,877.82V79.18C0,35.45,35.45,0,79.18,0h798.64C921.55,0,957,35.45,957,79.18v798.64
	C957,921.55,921.55,957,877.82,957z"/>
<g>
	<path style="fill:#30C2F7;" d="M116.08,484.19c-4.27-18.22-4.27-36.42,0-54.64c4.26-18.21,13.37-34.29,27.32-48.24l17.44-17.44
		l63.35,63.35l-15.69,15.69c-3.88,3.88-5.91,8.62-6.1,14.24c-0.2,5.61,1.64,10.36,5.52,14.24l264.47,264.47
		c3.87,3.87,8.62,5.71,14.24,5.52c5.61-0.2,10.36-2.23,14.24-6.1l89.51-89.51c3.87-3.87,5.9-8.63,6.1-14.24
		c0.19-5.62-1.65-10.37-5.52-14.24L325.33,351.67l62.77-62.77L635.71,536.5c4.26,4.26,9.2,6.29,14.82,6.1
		c5.61-0.2,10.36-2.22,14.24-6.1l82.54-82.54c3.87-3.87,5.9-8.63,6.1-14.24c0.19-5.62-1.84-10.56-6.1-14.82L500.87,178.45
		c-3.88-3.88-8.63-5.72-14.24-5.52c-5.62,0.19-10.37,2.23-14.24,6.1l-21.51,21.51l-63.35-63.35l23.25-23.25
		c14.33-14.33,30.51-23.73,48.53-28.19c18.01-4.46,36.33-4.36,54.93,0.29c18.6,4.65,34.87,13.95,48.82,27.9l249.35,249.35
		c14.33,14.33,23.73,30.71,28.19,49.12c4.45,18.4,4.35,36.52-0.29,54.35c-4.66,17.83-14.15,33.91-28.48,48.24l-86.02,86.02
		c-5.04,5.04-10.57,9.59-16.57,13.66c-6.01,4.07-12.12,7.27-18.31,9.59c-0.01,17.05-3.49,32.55-10.46,46.5
		c-6.97,13.95-15.5,25.96-25.57,36.04l-93,93c-13.95,13.95-29.94,23.15-47.95,27.61c-18.03,4.46-36.24,4.45-54.64,0
		c-18.41-4.46-34.39-13.47-47.95-27.03L143.98,533.01C129.64,518.67,120.34,502.4,116.08,484.19z"/>
</g>
</svg>
